<svg width="161" height="161" viewBox="0 0 161 161" fill="none" xmlns="http://www.w3.org/2000/svg">
<path fill-rule="evenodd" clip-rule="evenodd" d="M80.5 0C124.959 0 161 36.0411 161 80.5C161 124.959 124.959 161 80.5 161C36.0411 161 0 124.959 0 80.5C0 36.0411 36.0411 0 80.5 0Z" fill="#EB8028"/>
<mask id="mask0_4_77" style="mask-type:luminance" maskUnits="userSpaceOnUse" x="0" y="0" width="161" height="161">
<path d="M80.5 0C124.959 0 161 36.0411 161 80.5C161 124.959 124.959 161 80.5 161C36.0411 161 0 124.959 0 80.5C0 36.0411 36.0411 0 80.5 0Z" fill="white"/>
</mask>
<g mask="url(#mask0_4_77)">
<path fill-rule="evenodd" clip-rule="evenodd" d="M123.768 67.7721L213.063 157.068H203.163L113.868 67.7721H123.768Z" fill="#CA6E23"/>
<path fill-rule="evenodd" clip-rule="evenodd" d="M113.868 67.7721L203.163 157.068V172.705L113.868 83.4097V67.7721Z" fill="#CA6E23"/>
<path fill-rule="evenodd" clip-rule="evenodd" d="M115.61 83.4099L204.905 172.705V176.351L115.61 87.0559V83.4099Z" fill="#CA6E23"/>
<path fill-rule="evenodd" clip-rule="evenodd" d="M115.61 87.0558L204.905 176.351H204.047L114.752 87.0558H115.61Z" fill="#CA6E23"/>
<path fill-rule="evenodd" clip-rule="evenodd" d="M114.752 87.0558L204.047 176.351V190.292L114.752 100.997V87.0558Z" fill="#CA6E23"/>
<path fill-rule="evenodd" clip-rule="evenodd" d="M115.61 100.997L204.905 190.292V193.938L115.61 104.643V100.997Z" fill="#CA6E23"/>
<path fill-rule="evenodd" clip-rule="evenodd" d="M115.61 104.643L204.905 193.938H204.047L114.752 104.643H115.61Z" fill="#CA6E23"/>
<path fill-rule="evenodd" clip-rule="evenodd" d="M114.752 104.643L204.048 193.938H203.163L113.868 104.643H114.752Z" fill="#CA6E23"/>
<path fill-rule="evenodd" clip-rule="evenodd" d="M113.868 104.643L203.163 193.938V205.791L113.868 116.496V104.643Z" fill="#CA6E23"/>
<path fill-rule="evenodd" clip-rule="evenodd" d="M118.098 117.645L207.393 206.94L207.475 207.026L207.555 207.115L207.631 207.206L207.705 207.3L207.776 207.396L207.844 207.494L207.909 207.594L118.614 118.299L118.549 118.198L118.481 118.1L118.41 118.004L118.336 117.911L118.259 117.82L118.18 117.731L118.098 117.645Z" fill="#CA6E23"/>
<path fill-rule="evenodd" clip-rule="evenodd" d="M123.666 119.157L212.961 208.453L213.15 208.66L213.318 208.886L213.465 209.127L213.589 209.382L213.687 209.65L213.76 209.93L213.804 210.219L213.819 210.517V213.439L124.524 124.144V121.221L124.509 120.923L124.464 120.634L124.392 120.355L124.293 120.086L124.17 119.831L124.023 119.59L123.854 119.365L123.666 119.157Z" fill="#CA6E23"/>
<path fill-rule="evenodd" clip-rule="evenodd" d="M124.523 124.144L213.819 213.439H206.501L117.206 124.144H124.523Z" fill="#CA6E23"/>
<path fill-rule="evenodd" clip-rule="evenodd" d="M117.206 124.144L206.502 213.439H204.443L115.147 124.144H117.206Z" fill="#CA6E23"/>
<path fill-rule="evenodd" clip-rule="evenodd" d="M115.147 124.144L204.443 213.439H202.75L113.455 124.144H115.147Z" fill="#CA6E23"/>
<path fill-rule="evenodd" clip-rule="evenodd" d="M113.454 124.144L202.75 213.439H198.361L109.066 124.144H113.454Z" fill="#CA6E23"/>
<path fill-rule="evenodd" clip-rule="evenodd" d="M46.3769 67.7721L135.672 157.068H125.772L36.4771 67.7721H46.3769Z" fill="#CA6E23"/>
<path fill-rule="evenodd" clip-rule="evenodd" d="M45.4918 87.0558L134.787 176.351H133.929L44.6338 87.0558H45.4918Z" fill="#CA6E23"/>
<path fill-rule="evenodd" clip-rule="evenodd" d="M46.3763 104.643L135.672 193.938H134.787L45.4922 104.643H46.3763Z" fill="#CA6E23"/>
<path fill-rule="evenodd" clip-rule="evenodd" d="M62.3513 124.144L151.647 213.439H148.123L58.8274 124.144H62.3513Z" fill="#CA6E23"/>
<path fill-rule="evenodd" clip-rule="evenodd" d="M58.8274 124.144L148.123 213.439H144.982L55.6865 124.144H58.8274Z" fill="#CA6E23"/>
<path fill-rule="evenodd" clip-rule="evenodd" d="M55.6865 124.144L144.982 213.439H139.654L50.3582 124.144H55.6865Z" fill="#CA6E23"/>
<path fill-rule="evenodd" clip-rule="evenodd" d="M50.3419 124.144L139.637 213.439H133.896L44.6008 124.144H50.3419Z" fill="#CA6E23"/>
<path fill-rule="evenodd" clip-rule="evenodd" d="M44.6008 124.144L133.896 213.439H128.568L39.2725 124.144H44.6008Z" fill="#CA6E23"/>
<path fill-rule="evenodd" clip-rule="evenodd" d="M45.4918 104.643L134.787 193.938H133.929L44.6338 104.643H45.4918Z" fill="#CA6E23"/>
<path fill-rule="evenodd" clip-rule="evenodd" d="M68.7136 124.144L158.009 213.439H151.647L62.3513 124.144H68.7136Z" fill="#CA6E23"/>
<path fill-rule="evenodd" clip-rule="evenodd" d="M91.5304 124.144L180.826 213.439H158.009L68.7131 124.144H91.5304Z" fill="#CA6E23"/>
<path fill-rule="evenodd" clip-rule="evenodd" d="M109.066 124.144L198.361 213.439H180.826L91.531 124.144H109.066Z" fill="#CA6E23"/>
<path fill-rule="evenodd" clip-rule="evenodd" d="M80.4721 36.8566L123.768 67.7722H113.868V83.4099H115.61V87.0559H114.753V100.997H115.61V104.643H114.753H113.868V116.496H115.372C116.735 116.496 117.937 117.218 118.614 118.299H121.602C123.209 118.299 124.524 119.614 124.524 121.221V124.144H117.206H115.147H113.455H109.066H91.5312H68.7139H62.3517H58.8276H55.6868H50.3585H44.6008H39.2727V121.221C39.2727 119.614 40.5877 118.299 42.195 118.299H44.9033C45.2641 117.723 45.7736 117.249 46.3769 116.932V104.643H45.4926H44.6347V100.997H45.4926V87.0559H44.6347V83.4099H46.377V67.7722H36.4771L80.4721 36.8566Z" fill="#CA6E23"/>
</g>
<path fill-rule="evenodd" clip-rule="evenodd" d="M45.4922 86.3052H46.5646V104.643H45.4922V86.3052Z" fill="#3E2723" stroke="#212121" stroke-width="0.0266249"/>
<path fill-rule="evenodd" clip-rule="evenodd" d="M44.6338 100.997H46.5641V104.643H44.6338V100.997Z" fill="#CE2929"/>
<path fill-rule="evenodd" clip-rule="evenodd" d="M44.6338 83.4099H46.5641V87.0559H44.6338V83.4099Z" fill="#CE2929"/>
<path fill-rule="evenodd" clip-rule="evenodd" d="M113.679 86.3052H114.752V104.643H113.679V86.3052Z" fill="#3E2723" stroke="#212121" stroke-width="0.0266249"/>
<path fill-rule="evenodd" clip-rule="evenodd" d="M113.679 100.997H115.61V104.643H113.679V100.997Z" fill="#CE2929"/>
<path fill-rule="evenodd" clip-rule="evenodd" d="M113.679 83.4099H115.61V87.0559H113.679V83.4099Z" fill="#CE2929"/>
<path d="M113.868 120.721L113.868 122.497H112.092C94.3825 122.497 98.7957 122.497 48.1526 122.497H46.3766L46.3765 120.721L46.3766 67.3506H48.1526H112.092H113.868L113.868 120.721Z" fill="#CABCA9"/>
<path d="M36.4771 67.7722L80.4721 36.8566L123.768 67.7722H36.4771Z" fill="#CE2929"/>
<path fill-rule="evenodd" clip-rule="evenodd" d="M69.4424 85.186V120.721V122.497H90.8022V120.721V85.186V83.4099H89.0261H71.2185H69.4424V85.186Z" fill="#A8977E"/>
<path d="M69.9971 84.6308V120.166V121.387H90.2467V120.166V84.6308V83.4097H89.0258H71.2182H69.9971L69.9971 84.6308ZM68.887 120.166V84.6308V82.8546V82.2996H69.442H71.2182H89.0258H90.8018H91.3569V82.8546V84.6308V120.166V121.942V122.497H90.8018H69.442H68.887V121.942V120.166Z" fill="#391F0B"/>
<path fill-rule="evenodd" clip-rule="evenodd" d="M50.3582 121.221H115.147V124.143H50.3582V121.221Z" fill="#616161"/>
<path fill-rule="evenodd" clip-rule="evenodd" d="M47.4359 118.299H42.1947C40.5875 118.299 39.2725 119.614 39.2725 121.221V124.144H50.3418C50.3418 124.153 50.3509 124.144 50.3418 124.144L50.3582 121.221C50.3582 119.614 49.0432 118.299 47.4359 118.299Z" fill="#689F38"/>
<path fill-rule="evenodd" clip-rule="evenodd" d="M60.6017 120.624H57.446C56.4783 120.624 55.6865 121.416 55.6865 122.384V124.143H62.3514C62.3514 124.149 62.3568 124.143 62.3514 124.143L62.3613 122.384C62.3613 121.416 61.5695 120.624 60.6017 120.624Z" fill="#689F38"/>
<path fill-rule="evenodd" clip-rule="evenodd" d="M55.0035 116.495H48.1453C46.0422 116.495 44.3215 118.216 44.3215 120.319V123.864C44.3215 124.018 44.4471 124.143 44.6005 124.143H58.8274V120.319C58.8274 118.216 57.1066 116.495 55.0035 116.495Z" fill="#8BC34A"/>
<path fill-rule="evenodd" clip-rule="evenodd" d="M112.89 116.495H115.372C117.475 116.495 119.195 118.216 119.195 120.319V122.154C119.195 123.248 118.3 124.143 117.206 124.143H109.066V120.319C109.066 118.216 110.787 116.495 112.89 116.495Z" fill="#689F38"/>
<path fill-rule="evenodd" clip-rule="evenodd" d="M116.36 118.299H121.601C123.209 118.299 124.524 119.614 124.524 121.221V124.144H113.454C113.454 124.153 113.445 124.144 113.454 124.144L113.438 121.221C113.438 119.614 114.753 118.299 116.36 118.299Z" fill="#8BC34A"/>
<path fill-rule="evenodd" clip-rule="evenodd" d="M68.7131 122.497H91.5306V124.144H68.7131V122.497Z" fill="#757575"/>
<path fill-rule="evenodd" clip-rule="evenodd" d="M86.5153 100.503C87.5196 100.503 88.3337 101.317 88.3337 102.321C88.3337 103.326 87.5196 104.14 86.5153 104.14C85.511 104.14 84.6968 103.326 84.6968 102.321C84.6968 101.317 85.511 100.503 86.5153 100.503Z" fill="#263238"/>
<path fill-rule="evenodd" clip-rule="evenodd" d="M98.387 51.2782C94.0338 54.06 91.4492 58.7288 88.6598 61.2249C70.9635 77.0617 62.5123 40.0754 98.387 51.2782Z" fill="#61A546"/>
<path fill-rule="evenodd" clip-rule="evenodd" d="M71.5764 64.878C75.2417 60.8186 78.3301 56.4014 84.5285 54.2269C87.0401 53.3458 87.5679 52.9698 90.3062 52.6372L90.2765 52.641C91.403 52.6147 91.8554 52.7628 92.9101 52.9634C92.0373 52.9921 92.6574 53.0018 91.6106 52.9134C89.0898 52.7007 86.9902 53.803 84.6993 54.6801C78.2544 57.1475 75.6798 61.7817 71.5979 66.2038L71.5764 64.878Z" fill="#558B2F"/>
<path fill-rule="evenodd" clip-rule="evenodd" d="M82.6227 55.0608C83.0489 55.0508 83.4849 55.0567 83.9322 55.0808C86.1776 55.2018 86.7109 55.0782 88.9568 55.7006L88.9324 55.6941C89.8206 56.0365 90.1263 56.298 90.8854 56.7944C90.1945 56.5356 90.6757 56.743 89.8865 56.3367C87.9862 55.3584 85.9913 55.5429 83.9195 55.4898C83.4643 55.4782 83.0234 55.4844 82.595 55.5069C82.6609 55.3673 82.6705 55.2073 82.6227 55.0608Z" fill="#558B2F"/>
<path fill-rule="evenodd" clip-rule="evenodd" d="M78.2073 57.8159C78.2316 57.8171 78.2557 57.818 78.2801 57.8193C80.9378 57.9626 81.5691 57.8162 84.2274 58.553L84.1985 58.5453C85.2498 58.9506 85.6115 59.2599 86.51 59.8476C85.6923 59.5413 86.2618 59.7868 85.3279 59.3058C83.0786 58.1479 80.7173 58.3662 78.265 58.3034L78.2123 58.3025C78.2673 58.1453 78.2656 57.9721 78.2073 57.8159Z" fill="#558B2F"/>
<path fill-rule="evenodd" clip-rule="evenodd" d="M85.2862 54.3942C85.4727 54.179 85.6489 53.9568 85.8135 53.7263C86.6395 52.5698 86.9732 52.3151 87.3469 51.0927C87.4078 50.5967 87.2949 50.4206 87.1631 49.97C87.1088 50.3547 87.1221 50.0832 87.1601 50.5372C87.2515 51.6305 86.2541 52.6199 85.4391 53.6793C85.2601 53.912 85.0708 54.1352 84.8721 54.3499C85.0255 54.3347 85.1738 54.3507 85.2862 54.3942Z" fill="#558B2F"/>
<path fill-rule="evenodd" clip-rule="evenodd" d="M79.6182 57.2335C79.6289 57.2185 79.6399 57.2039 79.6504 57.1888C80.8119 55.5514 81.2446 55.2076 81.8902 53.4214C82.0464 52.6865 81.9451 52.4106 81.8688 51.7222C81.7395 52.2915 81.8016 51.887 81.768 52.5701C81.6866 54.215 80.3541 55.5834 79.2222 57.0768L79.1975 57.1089C79.3608 57.1151 79.5106 57.1594 79.6182 57.2335Z" fill="#558B2F"/>
<path fill-rule="evenodd" clip-rule="evenodd" d="M60.197 56.9621C62.3122 58.3138 63.5681 60.5823 64.9234 61.7951C73.5219 69.4901 77.6282 51.5187 60.197 56.9621Z" fill="#61A546"/>
<path fill-rule="evenodd" clip-rule="evenodd" d="M73.2235 63.57C71.4426 61.5976 69.942 59.4512 66.9303 58.3947C65.7098 57.9666 65.4534 57.7839 64.1228 57.6223C63.5755 57.6095 63.3701 57.6834 62.8577 57.7808C63.2817 57.7947 62.9804 57.7994 63.489 57.7565C64.7139 57.6531 65.7342 58.1887 66.8473 58.6149C69.9788 59.8138 71.2297 62.0655 73.2131 64.2142L73.2235 63.57Z" fill="#4B772D"/>
<path fill-rule="evenodd" clip-rule="evenodd" d="M67.856 58.7999C67.6489 58.7951 67.4371 58.798 67.2198 58.8097C66.1287 58.8684 65.8696 58.8084 64.7784 59.1109C64.3467 59.2772 64.2101 59.401 63.8413 59.6422C64.177 59.5165 63.9432 59.6173 64.3265 59.4199C65.2499 58.9445 66.2193 59.0342 67.2259 59.0084C67.4471 59.0027 67.6614 59.0058 67.8695 59.0166C67.8375 58.9488 67.8329 58.8711 67.856 58.7999Z" fill="#4B772D"/>
<path fill-rule="evenodd" clip-rule="evenodd" d="M70.0018 60.1386C69.99 60.1392 69.9783 60.1396 69.9664 60.1403C68.675 60.2098 68.3683 60.1388 67.0766 60.4967C66.5658 60.6936 66.4041 60.8402 65.9675 61.1258C66.3648 60.977 66.0881 61.0962 66.542 60.8626C67.6348 60.2999 68.7822 60.406 69.9737 60.3755L69.9994 60.375C69.9726 60.2986 69.9735 60.2145 70.0018 60.1386Z" fill="#4B772D"/>
<path fill-rule="evenodd" clip-rule="evenodd" d="M66.5619 58.4759C66.4712 58.3714 66.3856 58.2634 66.3056 58.1514C65.9043 57.5895 65.7421 57.4657 65.5606 56.8718C65.531 56.6308 65.5859 56.5452 65.6499 56.3262C65.6763 56.5132 65.6698 56.3813 65.6513 56.6019C65.6069 57.1331 66.0915 57.6138 66.4875 58.1286C66.5745 58.2416 66.6665 58.3501 66.7631 58.4545C66.6885 58.447 66.6164 58.4548 66.5619 58.4759Z" fill="#4B772D"/>
<path fill-rule="evenodd" clip-rule="evenodd" d="M69.3165 59.8555C69.3113 59.8483 69.306 59.8411 69.3008 59.8338C68.7365 59.0382 68.5263 58.8711 68.2126 58.0032C68.1367 57.6461 68.1859 57.5121 68.2229 57.1776C68.2858 57.4542 68.2556 57.2577 68.272 57.5896C68.3115 58.3889 68.959 59.0537 69.5089 59.7794C69.4296 59.7823 69.3688 59.8195 69.3165 59.8555Z" fill="#4B772D"/>
</svg>
